<?xml version="1.0" encoding="utf-8"?>
<!-- Generator: Adobe Illustrator 25.4.1, SVG Export Plug-In . SVG Version: 6.00 Build 0)  -->
<svg version="1.1" id="vector" xmlns="http://www.w3.org/2000/svg" xmlns:xlink="http://www.w3.org/1999/xlink" x="0px" y="0px"
	 viewBox="0 0 404 189" style="enable-background:new 0 0 404 189;" xml:space="preserve">
<style type="text/css">
	.st0{fill:#3A4156;}
</style>
<g id="Grupo_6195" transform="translate(64.001 374.856)">
	<g id="Grupo_5732" transform="translate(95.265 0)">
		<path id="Caminho_6726" class="st0" d="M26.6-242.6c-3.8-2-7.6-5.1-9.2-9.1c-5-11.9,7.1-54.6,11-74.7c0.5-2.3,0.8-3.6,0.8-3.7
			c0.8-3.8,1.6-9.9-1.6-12.8c-2-1.7-4.6-2.5-7.2-2.1c-3,0.4-6.1,0.9-9,1.7c0,0-22.7,45-24.9,51.5c-0.2-0.9-2.1-25.7-3.2-29.5
			c-1.6-4.8-4-9.8-11.4-10.2c-0.7,0-8.9-0.8-14.2,4.6c3.2,0,6.1,2.7,6.6,4.4c0.9,3.4-0.1,6-0.8,10.2c-2.1,13-11.5,65.9-11,74.5
			c0.2,4.8,2.6,18.8,23.1,12.5c-5.8-4.7-5.1-11.2-5-13.7c0.3-10.6,3.3-27.5,6.4-45.1c2.7,13.3,4.8,22.2,4.8,22.2s0.7,3.1,3,3.6
			c3.5,0.8,7.7-1.1,7.7-1.1c-0.3-2.7,1.6-11.2,2.4-14.5c2.6-10.8,7-23,11.9-31.2c0,0.2,0,0.4-0.1,0.6c-1,8.7-2.8,16.5-4.3,25.1
			c-1.4,8.5-3.9,17-2.8,25.6C1.7-236.7,21.3-240.7,26.6-242.6z M92.7-269.6c8.4,4.2,18.1,0.3,25-4.9c4.7-3.5,8.7-7.8,11.8-12.7
			c1.5,4.7,4.8,8.5,9.2,10.8c10.1,5.5,19.7-0.6,25.2-5.3c4.5-3.8,7.9-8.8,9.9-14.3c2.7-7.1,4.1-16.1-0.5-20.1
			c-2.9-2.5-8.1-3-11.2,0.5c6.4-0.2,5.5,7.5,3.8,11.8c-2.2,5.6-9.9,15.1-16.8,10.5c-5.9-4-1.8-14.6,0.9-19.4c2-3.6,4.9-6.7,8.4-8.9
			c4.1-2.7,10.3-2.3,13.2-0.2c0,0-3-13.5-15.2-11.4c0,0-10,1.3-18.8,11.9c-5.3,6.9-8.6,15.1-9.3,23.8c-2.4,3-5.2,5.7-8.3,7.9
			c-4.4,3.3-11.4,7.3-16.7,3.5c-7-5-2.2-20,4.4-26.7c0.8-0.9,1.7-1.7,2.7-2.3c3.1-1.9,4.1,0.1,4.1,1.3c0,1.4-0.5,4.2-3,7.8
			c-0.1,0.1-0.2,0.3-0.3,0.4l0.8,0.1c0.9,0,12.6,1.1,12.4-11.8c-0.2-4-2.3-7.7-5.7-9.9c-10.7-7.2-22.8,4.1-28.3,12
			C81.8-303,75.5-278.2,92.7-269.6L92.7-269.6z M229.6-254.7c-5.8-2.6-30.3-10.2-74.5-7.8c-13.1,0.7-25.6,2-38.3,3.9
			c-10.6,1.5-21,3.9-31.2,7c-0.9,0.3-4.9,1.5-3.8,7.5c40.1-7.7,79.3-8.9,122.1-1.5c8.8,1.4,17.4,3.4,26,6c0.6-1.7,0.9-2.7,1-2.8
			C232-245.6,234.1-252.6,229.6-254.7L229.6-254.7z M41.7-215.7c9.7,0.5,22.2-4.9,27.1-24.5c5.3-21,8.4-68.7,8.4-69.3
			c0.2-3.4,0.1-8.8-3.1-10.9c-2-1.3-4.3-1.8-6.6-1.4c-1.7,0.2-5,0.9-7.6,1.6c0.1,0.4,1.8,43.8-10.4,54.4c-1.2,1.1-4.6,1.8-3.3-2.1
			c7-20.7,6.3-31.1,4.3-38c-2-6.6-14-13.1-23.6-1.7c7.3-0.1,7.3,5.4,7.4,6.4c0.2,4.1-0.9,10.7-2.2,16.5c-2,9.3-5.5,24.2-1.1,29.5
			c3.6,4.4,8.9,4.3,14.1,2.1c5.1-2.1,10.2-7.8,12.9-14.3c0,0-1.5,16-4.9,27.7c-0.6,2-3.1,10.5-9.8,12.7c-1.4,0.4-7.4,2.4-11.1-3.7
			c-0.5,1.9-2.2,12.7,8,14.8C40.4-215.9,41.3-215.7,41.7-215.7L41.7-215.7z M228.8-267.9H228v1.3h0.8c0.2,0,0.5,0,0.7-0.2
			c0.1-0.1,0.2-0.3,0.2-0.5c0-0.2-0.1-0.4-0.2-0.5C229.3-267.9,229.1-267.9,228.8-267.9L228.8-267.9z M228.8-268.4
			c0.4,0,0.8,0.1,1.2,0.3c0.5,0.5,0.5,1.2,0,1.7c-0.1,0.1-0.3,0.2-0.5,0.3l1,1.3h-0.8l-0.9-1.2H228v1.2h-0.6v-3.5L228.8-268.4z
			 M228.8-269.6c-1.6,0.1-2.9,1.4-2.9,3.1c0.1,1.6,1.4,2.9,3.1,2.9c1.6-0.1,2.9-1.4,2.9-3C231.9-268.3,230.5-269.6,228.8-269.6z
			 M228.8-270c1.9,0.1,3.4,1.7,3.3,3.6c-0.1,1.9-1.7,3.4-3.6,3.3c-1.8-0.1-3.3-1.6-3.3-3.4C225.3-268.5,226.9-270.1,228.8-270z
			 M176.4-287.7c-1.1,3.2-2.3,8.5,0.2,11.3c1.6,1.7,3.8,2.7,6.1,2.9c1.7,0.2,5.1,0.3,7.8,0.2c0-0.4,9.4-42.8,24-50.3
			c1.4-0.7,5-0.6,2.7,2.9c-12.1,18.4-14,28.7-13.8,35.8c0.2,6.9,10.2,16,22.4,7.2c-7.1-1.6-5.7-7-5.5-8c0.8-4.1,3.7-10.2,6.3-15.5
			c4.3-8.6,11.5-22.1,8.6-28.3c-2.4-5.1-7.6-6.3-13.2-5.4c-5.1,0.8-11.1,4.7-15.4,9.8c0.1-0.4,0.2-0.6,0.3-0.6c1-2.2,2.4-5.9,0.7-8
			c-1.2-1.5-2.9-2.5-4.9-2.7c-8.1-1.3-14.1,2.4-16.8,5.6c5.1,0.7,4.5,4.7,4.1,5.8C183-306.5,176.5-288,176.4-287.7L176.4-287.7z"/>
	</g>
	<path id="Caminho_6759" class="st0" d="M-52.9-305.4c-1.2,0-2.1-0.9-2.1-2.1l0,0c0-1.2,0.9-2.1,2.1-2.1c0,0,0,0,0,0h12.7
		c1.2,0,2.1,0.9,2.1,2.1l0,0c0,1.2-1,2.1-2.1,2.1c0,0,0,0,0,0L-52.9-305.4L-52.9-305.4z M-24.4-287.6c-0.1-2.6,0-5.2,0-7.8
		c0-2.6,0-5.1,0-7.7h0c0-5.1-0.1-10.2,0-15.4c0.2-3.7,3.1-6.8,6.8-7c4.1-0.5,7.8,2.5,8.3,6.6c0,0.2,0,0.3,0,0.5c0,0.3,0,0.6,0,0.9
		c0,9.6,0,19.2,0,28.9c0.2,3.5-2.1,6.7-5.5,7.6c-0.7,0.2-1.5,0.3-2.2,0.3C-20.9-280.6-24.2-283.6-24.4-287.6z M-54.3-274.3
		c-0.4-4.5-0.2-9-0.2-13.6c0-1.2,0-2.4,0-3.7c0-4.2,3.3-7.6,7.5-7.7c4.1,0,7.6,3.2,7.7,7.4c0,0.1,0,0.2,0,0.3c0,4.6,0,9.2,0,13.9
		c0.1,10.3,7.4,19.2,17.5,21.3c14,3,27.2-7.3,27.3-21.3c0-4.7,0-9.3,0-14c-0.1-3.6,2.4-6.6,5.9-7.4c4.1-1,8.2,1.5,9.1,5.6
		c0.1,0.4,0.2,0.9,0.2,1.3c0.1,2.7,0.1,14.5-0.2,17.6c-0.7,9.2-5,17.7-11.9,23.7c-6.2,5.6-14.1,9-22.4,9.6c-1.1,0.1-2.1,0.1-3.2,0.1
		C-35.9-241-52.6-255.2-54.3-274.3L-54.3-274.3z M13.2-322.7c-4.8,0.1-8.6,4.1-8.4,8.9c0.1,4.8,4.1,8.6,8.9,8.4
		c4.7-0.1,8.4-4,8.4-8.7C22-318.9,18-322.7,13.2-322.7L13.2-322.7z"/>
</g>
</svg>
