<?xml version="1.0" encoding="utf-8"?>
<!-- Generator: Adobe Illustrator 25.4.1, SVG Export Plug-In . SVG Version: 6.00 Build 0)  -->
<svg version="1.1" id="vector" xmlns="http://www.w3.org/2000/svg" xmlns:xlink="http://www.w3.org/1999/xlink" x="0px" y="0px"
	 viewBox="0 0 350 125" style="enable-background:new 0 0 350 125;" xml:space="preserve">
<style type="text/css">
	.st0{fill:#FFFFFF;}
</style>
<g id="Grupo_6195" transform="translate(64.001 374.856)">
	<g id="Grupo_5732" transform="translate(95.265 0)">
		<path id="Caminho_6726" class="st0" d="M1.3-278.8c-3.4-1.8-6.7-4.6-8.2-8c-4.5-10.6,6.3-48.6,9.8-66.4c0.4-2,0.7-3.2,0.7-3.3
			c0.7-3.3,1.4-8.8-1.4-11.4c-1.8-1.5-4.1-2.2-6.4-1.9c-2.7,0.3-5.4,0.8-8,1.5c0,0-20.1,40-22.1,45.8c-0.2-0.8-1.9-22.8-2.9-26.2
			c-1.4-4.2-3.5-8.7-10.1-9.1c-0.6,0-7.9-0.7-12.6,4.1c2.8,0,5.4,2.4,5.8,3.9c0.8,3-0.1,5.4-0.7,9.1c-1.9,11.6-10.2,58.5-9.8,66.2
			c0.2,4.2,2.3,16.7,20.5,11.1c-5.2-4.1-4.5-10-4.5-12.2c0.3-9.4,2.9-24.5,5.7-40.1c2.4,11.8,4.3,19.7,4.3,19.7s0.6,2.7,2.6,3.2
			c3.1,0.7,6.9-1,6.9-1c-0.2-2.4,1.4-9.9,2.1-12.9c2.3-9.6,6.2-20.4,10.6-27.7c0,0.2,0,0.3-0.1,0.5c-0.9,7.7-2.5,14.6-3.8,22.3
			c-1.3,7.5-3.5,15.1-2.5,22.7C-20.8-273.6-3.3-277.1,1.3-278.8z M60.2-302.8c7.5,3.8,16.1,0.3,22.2-4.3c4.2-3.1,7.7-6.9,10.5-11.3
			c1.4,4.1,4.3,7.6,8.1,9.6c9,4.9,17.5-0.5,22.4-4.7c4-3.4,7-7.8,8.8-12.7c2.4-6.3,3.6-14.3-0.5-17.8c-2.6-2.2-7.2-2.6-10,0.4
			c5.7-0.1,4.9,6.7,3.4,10.5c-2,5-8.8,13.4-15,9.3c-5.3-3.5-1.6-12.9,0.8-17.3c1.8-3.2,4.4-6,7.5-7.9c3.7-2.4,9.2-2.1,11.7-0.2
			c0,0-2.7-12-13.5-10.1c0,0-8.9,1.2-16.7,10.6c-4.7,6.1-7.6,13.4-8.3,21.1c-2.1,2.7-4.6,5-7.4,7c-3.9,3-10.1,6.5-14.9,3.1
			c-6.2-4.4-1.9-17.8,3.9-23.8c0.7-0.8,1.5-1.5,2.4-2.1c2.7-1.7,3.6,0.1,3.6,1.1c0,1.2-0.4,3.7-2.7,6.9c-0.1,0.1-0.2,0.2-0.3,0.4
			l0.7,0.1c0.8,0,11.2,1,11-10.5c-0.2-3.6-2.1-6.8-5-8.8c-9.5-6.4-20.3,3.6-25.2,10.6C50.5-332.5,44.8-310.4,60.2-302.8L60.2-302.8z
			 M181.9-289.5c-5.1-2.3-26.9-9.1-66.2-6.9c-11.6,0.7-22.7,1.8-34,3.5c-9.4,1.4-18.7,3.5-27.7,6.2c-0.8,0.2-4.3,1.4-3.4,6.6
			c35.6-6.9,70.5-7.9,108.6-1.4c7.8,1.3,15.5,3,23.1,5.3c0.5-1.5,0.8-2.4,0.9-2.5C184-281.4,185.9-287.7,181.9-289.5L181.9-289.5z
			 M14.8-254.9c8.6,0.4,19.7-4.4,24.1-21.8c4.7-18.7,7.5-61.1,7.5-61.6c0.2-3,0.1-7.8-2.7-9.7c-1.7-1.1-3.9-1.6-5.9-1.2
			c-1.5,0.2-4.4,0.8-6.7,1.4c0.1,0.3,1.6,38.9-9.2,48.4c-1.1,0.9-4.1,1.6-2.9-1.9c6.3-18.4,5.6-27.7,3.8-33.7
			c-1.7-5.9-12.4-11.6-20.9-1.5c6.5-0.1,6.5,4.8,6.6,5.7c0.2,3.7-0.8,9.6-1.9,14.7c-1.8,8.3-4.9,21.5-1,26.2
			c3.2,3.9,7.9,3.8,12.6,1.9c4.5-1.9,9.1-7,11.5-12.7c0,0-1.3,14.2-4.3,24.7c-0.5,1.8-2.7,9.3-8.7,11.3c-1.2,0.4-6.6,2.1-9.8-3.3
			c-0.4,1.7-2,11.3,7.1,13.2C13.6-255,14.5-254.9,14.8-254.9L14.8-254.9z M181.2-301.3h-0.7v1.1h0.7c0.2,0,0.4,0,0.6-0.1
			c0.1-0.1,0.2-0.3,0.2-0.4c0-0.2,0-0.3-0.2-0.4C181.6-301.2,181.4-301.3,181.2-301.3L181.2-301.3z M181.1-301.7
			c0.4,0,0.7,0.1,1.1,0.2c0.4,0.4,0.4,1.1,0,1.5c-0.1,0.1-0.3,0.2-0.4,0.3l0.9,1.1H182l-0.8-1.1h-0.7v1.1H180v-3.2L181.1-301.7z
			 M181.1-302.8c-1.5,0.1-2.6,1.3-2.5,2.7c0.1,1.5,1.3,2.6,2.7,2.5s2.6-1.2,2.6-2.6C183.8-301.6,182.6-302.8,181.1-302.8z
			 M181.1-303.2c1.7,0.1,3,1.5,2.9,3.2s-1.5,3-3.2,2.9c-1.6-0.1-2.9-1.4-2.9-3C178-301.8,179.4-303.2,181.1-303.2z M134.6-318.9
			c-0.9,2.9-2.1,7.5,0.2,10.1c1.4,1.5,3.3,2.4,5.4,2.6c1.5,0.2,4.5,0.2,6.9,0.2c0-0.3,8.4-38.1,21.3-44.7c1.3-0.7,4.4-0.6,2.4,2.5
			c-10.8,16.3-12.5,25.5-12.3,31.8c0.2,6.1,9.1,14.2,19.9,6.4c-6.3-1.4-5.1-6.2-4.9-7.1c0.7-3.6,3.3-9.1,5.6-13.8
			c3.8-7.6,10.2-19.7,7.7-25.2c-2.1-4.6-6.7-5.6-11.7-4.8c-4.6,0.7-9.9,4.1-13.7,8.7c0.1-0.3,0.2-0.6,0.2-0.6c0.9-2,2.1-5.2,0.6-7.1
			c-1.1-1.4-2.6-2.2-4.3-2.4c-7.2-1.1-12.6,2.1-15,5c4.5,0.6,4,4.2,3.7,5.1C140.4-335.6,134.7-319.2,134.6-318.9L134.6-318.9z"/>
	</g>
	<path id="Caminho_6759" class="st0" d="M-58.7-334.6c-1,0-1.9-0.8-1.9-1.9l0,0c0-1,0.8-1.9,1.9-1.9l0,0h11.3c1,0,1.9,0.8,1.9,1.9
		l0,0c0,1-0.8,1.9-1.9,1.9l0,0H-58.7L-58.7-334.6z M-33.4-318.8c-0.1-2.3,0-4.6,0-6.9s0-4.6,0-6.8l0,0c0-4.6-0.1-9.1,0-13.7
		c0.1-3.3,2.8-6,6.1-6.2c3.7-0.4,7,2.2,7.4,5.9c0,0.1,0,0.3,0,0.4c0,0.3,0,0.6,0,0.8c0,8.6,0,17.1,0,25.7c0.2,3.1-1.9,5.9-4.9,6.8
		c-0.6,0.2-1.3,0.3-2,0.3C-30.2-312.5-33.2-315.3-33.4-318.8z M-60-307c-0.4-4-0.1-8-0.2-12.1c0-1.1,0-2.2,0-3.3
		c0-3.7,3-6.8,6.7-6.8s6.7,2.9,6.8,6.5c0,0.1,0,0.2,0,0.2c0,4.1,0,8.2,0,12.3c0.1,9.2,6.6,17.1,15.6,19c12.4,2.7,24.2-6.5,24.3-18.9
		c0-4.1,0-8.3,0-12.4c-0.1-3.2,2.1-5.9,5.2-6.6c3.6-0.9,7.3,1.4,8.1,5c0.1,0.4,0.1,0.8,0.2,1.1c0.1,2.4,0.1,12.9-0.2,15.7
		C6-299,2.2-291.5-4-286.1c-5.5,5-12.5,8-19.9,8.6c-1,0.1-1.9,0.1-2.8,0.1C-43.6-277.4-58.4-290-60-307L-60-307z M0-350
		c-4.3,0.1-7.6,3.7-7.5,7.9c0.1,4.3,3.7,7.6,7.9,7.5s7.5-3.5,7.5-7.7C7.9-346.6,4.4-350,0-350L0-350z"/>
</g>
</svg>
